{"title":"Ip.Man.2.2010.1080p.BluRay.DTS.x264-LTT","uid":5634533,"size":7170349573,"categoryP":"video","categoryS":"hd___movies","magnet":"?xt=urn:btih:2769c53e4c6c6e07798a220b9df64cbe8b296130&amp;dn=Ip.Man.2.2010.1080p.BluRay.DTS.x264-LTT&amp;tr=udp%3A%2F%2Ftracker.openbittorrent.com%3A80&amp;tr=udp%3A%2F%2Fopen.demonii.com%3A1337&amp;tr=udp%3A%2F%2Ftracker.coppersurfer.tk%3A6969&amp;tr=udp%3A%2F%2Fexodus.desync.com%3A6969","seeders":0,"leechers":1,"uploader":"Ltt_01","files":3,"time":1276826438,"description":"Ip.Man.2.2010.1080p.DTS.mkv\n***************************\n\nTiTLE......  Yip Man 2  \nAKA:         Ip Man 2\nYEAR.......  2010\nGENRE......  Action | Biography | History\niMDB RATE..  User Rating: 7.8/10 (2,446 votes)\niMDB URL... &lt;a href=&quot; http://www.imdb.com/title/tt1386932/&quot; rel=&quot;nofollow&quot; target=&quot;_NEW&quot;&gt; http://www.imdb.com/title/tt1386932/&lt;/a&gt;\n*************************************************\n\nVideo\nDuration                         : 1h 47mn\nOverall bit rate                 : 8 866 Kbps\nWidth                            : 1 920 pixels\nHeight                           : 816 pixels\nDisplay aspect ratio             : 2.35:1\nFrame rate                       : 23.976 fps\nStream size                      : 5.40 GiB (81%)\n\nAudio\nFormat                           : DTS\nBit rate                         : 1 510 Kbps\nChannel(s)                       : 6 channels\nChannel positions                : Front: L C R, Surround: L R, LFE\nSampling rate                    : 48.0 KHz\nResolution                       : 24 bits\nStream size                      : 1.14 GiB (17%)\nLanguage                         : Chinese (Cantonese)\n\nSubtitles: English, French\n**************************\n","torrent":{"xt":"urn:btih:2769c53e4c6c6e07798a220b9df64cbe8b296130","amp;dn":"Ip.Man.2.2010.1080p.BluRay.DTS.x264-LTT","amp;tr":["udp%3A%2F%2Ftracker.openbittorrent.com%3A80","udp%3A%2F%2Fopen.demonii.com%3A1337","udp%3A%2F%2Ftracker.coppersurfer.tk%3A6969","udp%3A%2F%2Fexodus.desync.com%3A6969"],"infoHash":"2769c53e4c6c6e07798a220b9df64cbe8b296130","infoHashBuffer":{"type":"Buffer","data":[39,105,197,62,76,108,110,7,121,138,34,11,157,246,76,190,139,41,97,48]},"announce":[],"urlList":[]}}